<?xml version="1.0" encoding="UTF-8"?>
<!DOCTYPE svg PUBLIC "-//W3C//DTD SVG 1.1//EN" "http://www.w3.org/Graphics/SVG/1.1/DTD/svg11.dtd">
<svg xmlns="http://www.w3.org/2000/svg" version="1.1" width="106px" height="104px" style="shape-rendering:geometricPrecision; text-rendering:geometricPrecision; image-rendering:optimizeQuality; fill-rule:evenodd; clip-rule:evenodd" xmlns:xlink="http://www.w3.org/1999/xlink">
<g><path style="opacity:1" fill="#fefefe" d="M -0.5,-0.5 C 34.8333,-0.5 70.1667,-0.5 105.5,-0.5C 105.5,34.1667 105.5,68.8333 105.5,103.5C 90.8333,103.5 76.1667,103.5 61.5,103.5C 41.1937,101.512 20.527,100.845 -0.5,101.5C -0.5,67.5 -0.5,33.5 -0.5,-0.5 Z"/></g>
<g><path style="opacity:1" fill="#db9f93" d="M 46.5,18.5 C 48.8835,19.8851 50.5501,21.8851 51.5,24.5C 49.1475,23.6597 47.1475,22.3264 45.5,20.5C 45.3284,19.5084 45.6618,18.8417 46.5,18.5 Z"/></g>
<g><path style="opacity:1" fill="#cb654e" d="M 45.5,20.5 C 47.1475,22.3264 49.1475,23.6597 51.5,24.5C 53.6418,27.8004 54.9751,31.467 55.5,35.5C 55.5,36.1667 55.1667,36.5 54.5,36.5C 54.9589,32.6176 53.6255,30.6176 50.5,30.5C 51.2458,29.2638 51.5792,27.9305 51.5,26.5C 49.7231,26.2137 48.0564,25.5471 46.5,24.5C 45.3279,24.9186 44.3279,25.5853 43.5,26.5C 42.8182,25.7573 42.1515,25.0906 41.5,24.5C 42.209,23.596 43.209,23.2627 44.5,23.5C 44.2627,22.209 44.596,21.209 45.5,20.5 Z"/></g>
<g><path style="opacity:1" fill="#9cb838" d="M 46.5,18.5 C 45.6618,18.8417 45.3284,19.5084 45.5,20.5C 44.596,21.209 44.2627,22.209 44.5,23.5C 43.209,23.2627 42.209,23.596 41.5,24.5C 40.713,26.1042 39.3797,26.7709 37.5,26.5C 37.4729,28.1993 36.8062,29.5326 35.5,30.5C 34.7611,30.631 34.0944,30.4643 33.5,30C 35.6686,27.1808 37.1686,24.0141 38,20.5C 38.6667,21.1667 39.3333,21.8333 40,22.5C 41.7548,19.9561 43.7548,17.6227 46,15.5C 46.4828,16.448 46.6495,17.448 46.5,18.5 Z"/></g>
<g><path style="opacity:1" fill="#be3220" d="M 41.5,24.5 C 42.1515,25.0906 42.8182,25.7573 43.5,26.5C 44.3279,25.5853 45.3279,24.9186 46.5,24.5C 48.0564,25.5471 49.7231,26.2137 51.5,26.5C 51.5792,27.9305 51.2458,29.2638 50.5,30.5C 53.6255,30.6176 54.9589,32.6176 54.5,36.5C 48.8717,37.7091 43.2051,37.3758 37.5,35.5C 36.8333,33.8333 36.1667,32.1667 35.5,30.5C 36.8062,29.5326 37.4729,28.1993 37.5,26.5C 39.3797,26.7709 40.713,26.1042 41.5,24.5 Z"/></g>
<g><path style="opacity:1" fill="#e2e0ec" d="M 37.5,35.5 C 43.2051,37.3758 48.8717,37.7091 54.5,36.5C 55.1667,36.5 55.5,36.1667 55.5,35.5C 64.9423,37.2851 71.2756,42.6184 74.5,51.5C 73.8444,52.2778 73.0111,52.9444 72,53.5C 69.5237,51.5129 66.6903,50.5129 63.5,50.5C 63.853,52.6348 63.0197,53.9681 61,54.5C 58.755,52.3775 56.0884,51.0442 53,50.5C 50.8336,51.1643 48.8336,52.1643 47,53.5C 44.8539,51.5247 42.3539,50.1913 39.5,49.5C 36.8222,50.1754 34.1555,50.842 31.5,51.5C 31.5,50.1667 31.5,48.8333 31.5,47.5C 30.1266,47.3433 28.7932,47.51 27.5,48C 24.7206,51.2434 21.3873,52.4101 17.5,51.5C 21.2005,42.4838 27.8672,37.1505 37.5,35.5 Z"/></g>
<g><path style="opacity:1" fill="#af752b" d="M 74.5,51.5 C 75.7416,53.6112 75.7416,55.6112 74.5,57.5C 69.6143,59.5284 64.6143,61.3618 59.5,63C 55.0981,64.1081 50.7647,64.6081 46.5,64.5C 36.3048,62.4698 26.3048,59.8032 16.5,56.5C 16.366,54.7085 16.6993,53.0418 17.5,51.5C 21.3873,52.4101 24.7206,51.2434 27.5,48C 28.7932,47.51 30.1266,47.3433 31.5,47.5C 31.5,48.8333 31.5,50.1667 31.5,51.5C 34.1555,50.842 36.8222,50.1754 39.5,49.5C 42.3539,50.1913 44.8539,51.5247 47,53.5C 48.8336,52.1643 50.8336,51.1643 53,50.5C 56.0884,51.0442 58.755,52.3775 61,54.5C 63.0197,53.9681 63.853,52.6348 63.5,50.5C 66.6903,50.5129 69.5237,51.5129 72,53.5C 73.0111,52.9444 73.8444,52.2778 74.5,51.5 Z"/></g>
<g><path style="opacity:1" fill="#c89d7a" d="M 16.5,56.5 C 26.3048,59.8032 36.3048,62.4698 46.5,64.5C 50.7647,64.6081 55.0981,64.1081 59.5,63C 64.6143,61.3618 69.6143,59.5284 74.5,57.5C 70.287,66.6839 67.787,76.3506 67,86.5C 61.2324,90.7358 54.7324,92.7358 47.5,92.5C 39.1627,93.1187 31.8294,90.7854 25.5,85.5C 23.8394,78.9216 22.3394,72.255 21,65.5C 19.35,62.5327 17.85,59.5327 16.5,56.5 Z"/></g>
<g><path style="opacity:1" fill="#dcdddc" d="M -0.5,101.5 C 20.527,100.845 41.1937,101.512 61.5,103.5C 40.8333,103.5 20.1667,103.5 -0.5,103.5C -0.5,102.833 -0.5,102.167 -0.5,101.5 Z"/></g>
</svg>
